<?xml version="1.0" encoding="utf-8"?>
<!-- Generator: Adobe Illustrator 25.0.1, SVG Export Plug-In . SVG Version: 6.00 Build 0)  -->
<svg version="1.1" id="Layer_1" xmlns="http://www.w3.org/2000/svg" xmlns:xlink="http://www.w3.org/1999/xlink" x="0px" y="0px"
	 viewBox="0 0 15 10" style="enable-background:new 0 0 15 10;" xml:space="preserve">
<g>
	<g>
		<path d="M14.6,4.8l-4.5-4.5c-0.1-0.1-0.3-0.1-0.4,0c-0.1,0.1-0.1,0.3,0,0.4l4,4H0.6C0.4,4.7,0.3,4.8,0.3,5c0,0.2,0.1,0.3,0.3,0.3
			h13.1l-4,4c-0.1,0.1-0.1,0.3,0,0.4c0.1,0.1,0.1,0.1,0.2,0.1s0.2,0,0.2-0.1l4.5-4.5C14.7,5.1,14.7,4.9,14.6,4.8z"/>
	</g>
</g>
</svg>
