<?xml version="1.0" encoding="utf-8"?>
<!-- Generator: Adobe Illustrator 25.0.1, SVG Export Plug-In . SVG Version: 6.00 Build 0)  -->
<svg version="1.1" id="Layer_1" xmlns="http://www.w3.org/2000/svg" xmlns:xlink="http://www.w3.org/1999/xlink" x="0px" y="0px"
	 viewBox="0 0 100 100" style="enable-background:new 0 0 100 100;" xml:space="preserve">
<style type="text/css">
	.st0{fill:#049BAA;}
</style>
<g>
	<path class="st0" d="M18.4,55.3c-9.5,0-17.2,7.6-17.3,17.1c0,9.5,7.6,17.2,17.1,17.3c9.5,0,17.2-7.6,17.3-17.1
		C35.5,63.1,27.8,55.3,18.4,55.3z"/>
	<path class="st0" d="M38.2,82.5c-4.3,0-7.7,3.4-7.8,7.7c0,4.3,3.4,7.7,7.7,7.8c4.3,0,7.7-3.4,7.8-7.7C45.9,86,42.5,82.6,38.2,82.5z
		"/>
	<path class="st0" d="M58,2.2C35.2,2.1,16.5,20.5,16.4,43.4c0,3.2,0.3,6.2,1,9.2c0.3,0,0.6,0,1,0c11,0.1,19.9,9,19.8,20
		c0,2.4-0.4,4.7-1.2,6.8C43,82.9,50.1,85,57.6,85c10.7,0.1,20.4-3.9,27.8-10.5c-1.2,0.2-2.5,0.3-3.9,0.1c-4.2-0.6-5.5-5.5-5.4-6.3
		c-1.7,1.9-3.8,3.3-6.2,4.2c-2.5,0.9-5,1.4-7.7,1.4c-2.5,0-4.6-0.3-6.5-1c-1.9-0.6-3.4-1.5-4.6-2.6c-1.2-1.1-2.2-2.4-2.7-3.8
		c-0.6-1.4-0.9-3-0.9-4.6c0-4.4,1.5-8,4.6-10.6c3-2.7,7.3-4.3,12.9-5c3-0.4,5.5-0.6,7.7-0.8c2.2-0.2,4-0.5,5.4-0.8
		c1.4-0.4,2.5-0.9,3.2-1.7c0.7-0.7,1.1-1.8,1.1-3.3c0-1.2-0.3-2.1-0.8-2.8c-0.5-0.7-1.2-1.3-2-1.7c-0.8-0.4-1.7-0.7-2.6-0.8
		c-0.9-0.1-1.8-0.2-2.6-0.2c-2.2,0-4.2,0.5-6,1.6c-1.8,1.1-2.9,2.8-3.3,5.1H53.2c0.4-2.9,1.3-5.3,2.7-7.2c1.4-1.9,3-3.5,5-4.6
		c1.9-1.2,4.1-2,6.6-2.5c2.4-0.5,4.9-0.8,7.5-0.8c2.1,0,4.2,0.1,6.5,0.4c2.2,0.3,4.3,0.9,6.2,1.7c1.9,0.9,3.4,2.1,4.6,3.6
		c1.2,1.6,1.8,3.6,1.7,6.2c0,2.2-0.3,4.8-1,7.7l-4.1,18.4c-0.1,0.5-0.2,1-0.3,1.6c-0.1,1.3,0,3.3,1.6,4c5.6-7,9-15.9,9.1-25.6
		C99.3,20.9,80.9,2.3,58,2.2z"/>
	<path class="st0" d="M69.1,53c-1.2,0.1-2.3,0.3-3.5,0.6c-1.1,0.3-2.1,0.7-3,1.2c-0.9,0.5-1.5,1.3-2.1,2.2c-0.5,0.9-0.8,2.1-0.8,3.5
		c0,1.7,0.7,3,2.1,3.9c1.4,0.9,3,1.3,4.8,1.3c1.9,0,3.6-0.3,4.9-0.9c1.3-0.6,2.4-1.4,3.4-2.4c0.9-1,1.6-2.1,2.2-3.3
		c0.5-1.2,1-2.5,1.3-3.7l1.2-4.4c-1.6,0.9-3.3,1.5-5.1,1.7C72.8,52.7,71,52.9,69.1,53z"/>
</g>
</svg>
